HIERARCHY
ROOT Hips
{
  OFFSET 361.987 90.9444 208.986
  CHANNELS 6 Xposition Yposition Zposition Zrotation Xrotation Yrotation
  JOINT RightUpLeg
  {
    OFFSET -9.2522 -1.59682 0.0279277
    CHANNELS 6 Xposition Yposition Zposition Zrotation Xrotation Yrotation
    JOINT RightLeg
    {
      OFFSET 0.0747074 -41.8862 0.0914822
      CHANNELS 6 Xposition Yposition Zposition Zrotation Xrotation Yrotation
      JOINT RightFoot
      {
        OFFSET -0.151248 -41.5212 0.561876
        CHANNELS 6 Xposition Yposition Zposition Zrotation Xrotation Yrotation
        End Site
        {
          OFFSET 0 -7.69 17.5
        }
      }
    }
  }
  JOINT LeftUpLeg
  {
    OFFSET 9.3052 -1.61699 0.00247376
    CHANNELS 6 Xposition Yposition Zposition Zrotation Xrotation Yrotation
    JOINT LeftLeg
    {
      OFFSET 0.0747978 -41.873 0.0331682
      CHANNELS 6 Xposition Yposition Zposition Zrotation Xrotation Yrotation
      JOINT LeftFoot
      {
        OFFSET -0.911297 -41.7622 -0.129555
        CHANNELS 6 Xposition Yposition Zposition Zrotation Xrotation Yrotation
        End Site
        {
          OFFSET 0 -7.69 17.5
        }
      }
    }
  }
  JOINT Spine
  {
    OFFSET -0.0405741 14.3032 0.0638722
    CHANNELS 6 Xposition Yposition Zposition Zrotation Xrotation Yrotation
    JOINT Spine1
    {
      OFFSET 0.00267447 9.71289 0.0302688
      CHANNELS 6 Xposition Yposition Zposition Zrotation Xrotation Yrotation
      JOINT Spine2
      {
        OFFSET 0.0765809 10.1159 0.0211579
        CHANNELS 6 Xposition Yposition Zposition Zrotation Xrotation Yrotation
        JOINT Spine3
        {
          OFFSET 0.0130209 9.71063 0.0199857
          CHANNELS 6 Xposition Yposition Zposition Zrotation Xrotation Yrotation
          JOINT Neck
          {
            OFFSET -0.000506199 10.3849 -0.0559176
            CHANNELS 6 Xposition Yposition Zposition Zrotation Xrotation Yrotation
            JOINT Head
            {
              OFFSET -0.0574137 9.48321 0.019086
              CHANNELS 6 Xposition Yposition Zposition Zrotation Xrotation Yrotation
              End Site
              {
                OFFSET 0 15.95 0
              }
            }
          }
          JOINT RightShoulder
          {
            OFFSET -3.17284 6.93258 0.0374432
            CHANNELS 6 Xposition Yposition Zposition Zrotation Xrotation Yrotation
            JOINT RightArm
            {
              OFFSET -12.7367 -0.0856526 0.0353194
              CHANNELS 6 Xposition Yposition Zposition Zrotation Xrotation Yrotation
              JOINT RightForeArm
              {
                OFFSET -26.438 -0.108261 -0.0267403
                CHANNELS 6 Xposition Yposition Zposition Zrotation Xrotation Yrotation
                JOINT RightHand
                {
                  OFFSET -26.0041 0.0666393 -0.0599755
                  CHANNELS 6 Xposition Yposition Zposition Zrotation Xrotation Yrotation
                  JOINT RightHandThumb1
                  {
                    OFFSET -2.48905 0.190105 3.12053
                    CHANNELS 6 Xposition Yposition Zposition Zrotation Xrotation Yrotation
                    JOINT RightHandThumb2
                    {
                      OFFSET -3.68274 0 0
                      CHANNELS 6 Xposition Yposition Zposition Zrotation Xrotation Yrotation
                      JOINT RightHandThumb3
                      {
                        OFFSET -2.55832 0 0
                        CHANNELS 6 Xposition Yposition Zposition Zrotation Xrotation Yrotation
                        End Site
                        {
                          OFFSET -2.194 0 0
                        }
                      }
                    }
                  }
                  JOINT RightInHandIndex
                  {
                    OFFSET -3.22368 0.508421 1.97842
                    CHANNELS 6 Xposition Yposition Zposition Zrotation Xrotation Yrotation
                    JOINT RightHandIndex1
                    {
                      OFFSET -5.21684 -0.091368 0.999158
                      CHANNELS 6 Xposition Yposition Zposition Zrotation Xrotation Yrotation
                      JOINT RightHandIndex2
                      {
                        OFFSET -3.61937 0 0
                        CHANNELS 6 Xposition Yposition Zposition Zrotation Xrotation Yrotation
                        JOINT RightHandIndex3
                        {
                          OFFSET -2.0521 0 0
                          CHANNELS 6 Xposition Yposition Zposition Zrotation Xrotation Yrotation
                          End Site
                          {
                            OFFSET -1.805 0 0
                          }
                        }
                      }
                    }
                  }
                  JOINT RightInHandMiddle
                  {
                    OFFSET -3.38211 0.517263 0.756737
                    CHANNELS 6 Xposition Yposition Zposition Zrotation Xrotation Yrotation
                    JOINT RightHandMiddle1
                    {
                      OFFSET -5.17411 -0.084 0.313895
                      CHANNELS 6 Xposition Yposition Zposition Zrotation Xrotation Yrotation
                      JOINT RightHandMiddle2
                      {
                        OFFSET -3.94947 0 0
                        CHANNELS 6 Xposition Yposition Zposition Zrotation Xrotation Yrotation
                        JOINT RightHandMiddle3
                        {
                          OFFSET -2.47579 0 0
                          CHANNELS 6 Xposition Yposition Zposition Zrotation Xrotation Yrotation
                          End Site
                          {
                            OFFSET -1.975 0 0
                          }
                        }
                      }
                    }
                  }
                  JOINT RightInHandRing
                  {
                    OFFSET -3.36516 0.537895 -0.128947
                    CHANNELS 6 Xposition Yposition Zposition Zrotation Xrotation Yrotation
                    JOINT RightHandRing1
                    {
                      OFFSET -4.63474 -0.022105 -0.478947
                      CHANNELS 6 Xposition Yposition Zposition Zrotation Xrotation Yrotation
                      JOINT RightHandRing2
                      {
                        OFFSET -3.44238 0 0
                        CHANNELS 6 Xposition Yposition Zposition Zrotation Xrotation Yrotation
                        JOINT RightHandRing3
                        {
                          OFFSET -2.3881 0 0
                          CHANNELS 6 Xposition Yposition Zposition Zrotation Xrotation Yrotation
                          End Site
                          {
                            OFFSET -1.857 0 0
                          }
                        }
                      }
                    }
                  }
                  JOINT RightInHandPinky
                  {
                    OFFSET -3.16105 0.469368 -1.20179
                    CHANNELS 6 Xposition Yposition Zposition Zrotation Xrotation Yrotation
                    JOINT RightHandPinky1
                    {
                      OFFSET -4.14105 -0.022105 -1.09053
                      CHANNELS 6 Xposition Yposition Zposition Zrotation Xrotation Yrotation
                      JOINT RightHandPinky2
                      {
                        OFFSET -2.75653 0 0
                        CHANNELS 6 Xposition Yposition Zposition Zrotation Xrotation Yrotation
                        JOINT RightHandPinky3
                        {
                          OFFSET -1.74189 0 0
                          CHANNELS 6 Xposition Yposition Zposition Zrotation Xrotation Yrotation
                          End Site
                          {
                            OFFSET -1.645 0 0
                          }
                        }
                      }
                    }
                  }
                }
              }
            }
          }
          JOINT LeftShoulder
          {
            OFFSET 3.23396 6.90331 -0.0188646
            CHANNELS 6 Xposition Yposition Zposition Zrotation Xrotation Yrotation
            JOINT LeftArm
            {
              OFFSET 12.8962 -0.279022 -0.330674
              CHANNELS 6 Xposition Yposition Zposition Zrotation Xrotation Yrotation
              JOINT LeftForeArm
              {
                OFFSET 26.496 0.173646 -0.339204
                CHANNELS 6 Xposition Yposition Zposition Zrotation Xrotation Yrotation
                JOINT LeftHand
                {
                  OFFSET 25.9868 -0.151409 -0.0842447
                  CHANNELS 6 Xposition Yposition Zposition Zrotation Xrotation Yrotation
                  JOINT LeftHandThumb1
                  {
                    OFFSET 2.48905 0.190105 3.12053
                    CHANNELS 6 Xposition Yposition Zposition Zrotation Xrotation Yrotation
                    JOINT LeftHandThumb2
                    {
                      OFFSET 3.68274 0 0
                      CHANNELS 6 Xposition Yposition Zposition Zrotation Xrotation Yrotation
                      JOINT LeftHandThumb3
                      {
                        OFFSET 2.55832 0 0
                        CHANNELS 6 Xposition Yposition Zposition Zrotation Xrotation Yrotation
                        End Site
                        {
                          OFFSET 2.194 0 0
                        }
                      }
                    }
                  }
                  JOINT LeftInHandIndex
                  {
                    OFFSET 3.22368 0.508421 1.97842
                    CHANNELS 6 Xposition Yposition Zposition Zrotation Xrotation Yrotation
                    JOINT LeftHandIndex1
                    {
                      OFFSET 5.21684 -0.091368 0.999158
                      CHANNELS 6 Xposition Yposition Zposition Zrotation Xrotation Yrotation
                      JOINT LeftHandIndex2
                      {
                        OFFSET 3.61937 0 0
                        CHANNELS 6 Xposition Yposition Zposition Zrotation Xrotation Yrotation
                        JOINT LeftHandIndex3
                        {
                          OFFSET 2.0521 0 0
                          CHANNELS 6 Xposition Yposition Zposition Zrotation Xrotation Yrotation
                          End Site
                          {
                            OFFSET 1.805 0 0
                          }
                        }
                      }
                    }
                  }
                  JOINT LeftInHandMiddle
                  {
                    OFFSET 3.38211 0.517263 0.756737
                    CHANNELS 6 Xposition Yposition Zposition Zrotation Xrotation Yrotation
                    JOINT LeftHandMiddle1
                    {
                      OFFSET 5.17411 -0.084 0.313895
                      CHANNELS 6 Xposition Yposition Zposition Zrotation Xrotation Yrotation
                      JOINT LeftHandMiddle2
                      {
                        OFFSET 3.94947 0 0
                        CHANNELS 6 Xposition Yposition Zposition Zrotation Xrotation Yrotation
                        JOINT LeftHandMiddle3
                        {
                          OFFSET 2.47579 0 0
                          CHANNELS 6 Xposition Yposition Zposition Zrotation Xrotation Yrotation
                          End Site
                          {
                            OFFSET 1.975 0 0
                          }
                        }
                      }
                    }
                  }
                  JOINT LeftInHandRing
                  {
                    OFFSET 3.36516 0.537895 -0.128947
                    CHANNELS 6 Xposition Yposition Zposition Zrotation Xrotation Yrotation
                    JOINT LeftHandRing1
                    {
                      OFFSET 4.63474 -0.022105 -0.478947
                      CHANNELS 6 Xposition Yposition Zposition Zrotation Xrotation Yrotation
                      JOINT LeftHandRing2
                      {
                        OFFSET 3.44238 0 0
                        CHANNELS 6 Xposition Yposition Zposition Zrotation Xrotation Yrotation
                        JOINT LeftHandRing3
                        {
                          OFFSET 2.3881 0 0
                          CHANNELS 6 Xposition Yposition Zposition Zrotation Xrotation Yrotation
                          End Site
                          {
                            OFFSET 1.857 0 0
                          }
                        }
                      }
                    }
                  }
                  JOINT LeftInHandPinky
                  {
                    OFFSET 3.16105 0.469368 -1.20179
                    CHANNELS 6 Xposition Yposition Zposition Zrotation Xrotation Yrotation
                    JOINT LeftHandPinky1
                    {
                      OFFSET 4.14105 -0.022105 -1.09053
                      CHANNELS 6 Xposition Yposition Zposition Zrotation Xrotation Yrotation
                      JOINT LeftHandPinky2
                      {
                        OFFSET 2.75653 0 0
                        CHANNELS 6 Xposition Yposition Zposition Zrotation Xrotation Yrotation
                        JOINT LeftHandPinky3
                        {
                          OFFSET 1.74189 0 0
                          CHANNELS 6 Xposition Yposition Zposition Zrotation Xrotation Yrotation
                          End Site
                          {
                            OFFSET 1.645 0 0
                          }
                        }
                      }
                    }
                  }
                }
              }
            }
          }
        }
      }
    }
  }
}
MOTION
Frames:	3
Frame Time:	0.00833333
360.702 87.7486 180.181 22.8488 -1.11694 -144.637 -9.32164 -1.60061 -0.0157205 35.901 -35.174 29.377 -0.159376 -41.8791 0.155974 -5.38302 12.7481 0.947618 1.7897 -42.9345 -0.0318101 12.0354 17.1046 57.8766 9.29429 -1.53736 0.0611704 32.2269 -11.3211 21.3565 0.0835949 -41.8961 -0.00686446 -25.7579 41.5733 25.4947 0.0409235 -41.6776 -1.52953 9.0118 -19.6742 23.5237 -0.0660423 14.2988 0.0629893 -2.6706 -3.75911 -9.67946 -0.017284 9.71387 0.0230736 -0.608526 -1.0177 -2.38046 -0.00474993 10.1197 -0.0456975 -1.03044 -1.70495 -3.91269 -0.00595855 9.71684 -0.00312613 -0.747524 -0.494968 2.73456 -0.0277056 10.3863 0.193217 0.612813 -8.54612 43.9573 -0.171017 9.43188 0.0558415 -11.9323 10.7027 26.3556 -3.19637 6.90607 0.0179714 -2.22299 1.53943 4.74392 -12.7978 -0.0224365 0.089845 34.0533 -66.8662 3.66467 -26.4785 -0.0399094 0.0017715 38.8396 -7.74368 116.422 -25.9965 -0.0411439 0.000416702 -1.82348 -30.7603 -4.8204 -2.48905 0.190105 3.12053 28.184 10.7294 19.1592 -3.68274 0 0 5.56763e-16 -2.13694e-15 -10 -2.55832 0 0 -4.33614e-15 2.6339e-15 -10 -3.22368 0.508421 1.97842 -4.77083e-15 1.59028e-15 -7.95139e-16 -5.21684 -0.091368 0.999158 19.9818 0.871897 2.3964 -3.61937 0 0 24 -1.59028e-15 -0 -2.0521 0 0 20 2.38542e-15 1.59028e-15 -3.38211 0.517263 0.756737 -4.77083e-15 1.59028e-15 -7.95139e-16 -5.17411 -0.084 0.313895 20 1.59028e-15 1.39149e-15 -3.94947 5.68434e-14 0 24 1.59028e-15 -2.38542e-15 -2.47579 1.13687e-13 0 20 0 2.38542e-15 -3.36516 0.537895 -0.128947 -4.77083e-15 1.59028e-15 -7.95139e-16 -4.63474 -0.022105 -0.478947 19.9748 -1.02565 -2.81938 -3.44238 0 0 24 -1.59028e-15 1.59028e-15 -2.3881 0 0 20 -1.59028e-15 -1.59028e-15 -3.16105 0.469368 -1.20179 -4.77083e-15 1.59028e-15 -7.95139e-16 -4.14105 -0.022105 -1.09053 19.7815 -3.00948 -8.30515 -2.75653 5.68434e-14 2.84217e-14 24 -3.18055e-15 -3.97569e-16 -1.74189 0 0 20 3.18055e-15 7.95139e-16 3.1865 6.9177 -0.0160846 7.22788 -25.5137 -55.3386 12.8072 -0.0314226 -0.00826797 -26.6009 23.2965 -101.96 26.3885 -0.0468012 0.123554 37.7196 -5.85901 -33.6941 25.958 -0.00292562 0.105617 -23.5313 -14.522 -12.1408 2.48905 0.190105 3.12053 -28.184 10.7294 -19.1592 3.68274 0 0 4.31743e-15 -1.59028e-15 10 2.55832 2.84217e-14 -2.84217e-14 3.4091e-15 -1.59028e-15 10 3.22368 0.508421 1.97842 -4.19933e-15 0 -0 5.21684 -0.091368 0.999158 -19.9818 0.871897 -2.3964 3.61937 1.42109e-14 2.84217e-14 -24 3.97569e-16 -7.95139e-16 2.0521 -5.68434e-14 0 -20 -7.95139e-16 -7.95139e-16 3.38211 0.517263 0.756737 -4.19933e-15 0 -0 5.17411 -0.084 0.313895 -20 -3.97569e-16 -0 3.94947 2.84217e-14 0 -24 -1.98785e-16 7.95139e-16 2.47579 0 2.84217e-14 -20 0 7.95139e-16 3.36516 0.537895 -0.128947 -4.19933e-15 0 -0 4.63474 -0.022105 -0.478947 -19.9748 -1.02565 2.81938 3.44238 0 0 -24 -5.96354e-16 -0 2.3881 0 0 -20 9.93923e-17 -0 3.16105 0.469368 -1.20179 -4.19933e-15 0 -0 4.14105 -0.022105 -1.09053 -19.7815 -3.00948 8.30515 2.75653 -1.42109e-14 0 -24 0 5.96354e-16 1.74189 0 0 -20 -7.95139e-16 -3.72721e-16 
360.738 87.7513 180.218 22.8588 -1.10239 -144.673 -9.32211 -1.60096 -0.0173739 35.9338 -35.1935 29.3587 -0.160099 -41.8782 0.153193 -5.35736 12.7646 1.02023 1.79997 -42.9607 -0.0221679 11.8999 17.0761 57.8888 9.29287 -1.53731 0.0694383 32.2336 -11.33 21.3877 0.0837174 -41.8963 -0.00399327 -25.7133 41.5658 25.4708 0.033786 -41.6504 -1.53527 9.09452 -19.5749 23.5655 -0.0647998 14.2989 0.059825 -2.71636 -3.78514 -9.71356 -0.0172459 9.71394 0.0219797 -0.619345 -1.02617 -2.388 -0.00458112 10.1197 -0.0446598 -1.04856 -1.71952 -3.92443 -0.00659583 9.71693 -0.00383569 -0.74279 -0.487587 2.7371 -0.0294781 10.3865 0.191186 0.597633 -8.44209 43.9389 -0.168398 9.43271 0.0548646 -11.8656 10.7086 26.3796 -3.19634 6.9057 0.0179563 -2.23404 1.59541 4.68957 -12.7977 -0.0228714 0.0893796 33.8733 -66.9259 3.40924 -26.4776 -0.0405256 0.0016855 38.5019 -7.73632 116.604 -25.9966 -0.0318318 -0.0448139 -1.57782 -29.978 -4.42892 -2.48905 0.190105 3.12053 28.184 10.7294 19.1592 -3.68274 -5.68434e-14 0 -4.73928e-15 5.96354e-16 -10 -2.55832 0 0 -1.4166e-14 -4.37326e-15 -10 -3.22368 0.508421 1.97842 -1.98785e-15 0 3.97569e-16 -5.21684 -0.091368 0.999158 19.9818 0.871897 2.3964 -3.61937 -5.68434e-14 0 24 0 -7.95139e-16 -2.0521 5.68434e-14 -2.84217e-14 20 0 -7.95139e-16 -3.38211 0.517263 0.756737 -1.98785e-15 0 3.97569e-16 -5.17411 -0.084 0.313895 20 1.59028e-15 -1.83876e-15 -3.94947 -5.68434e-14 0 24 0 1.19271e-15 -2.47579 0 0 20 0 7.95139e-16 -3.36516 0.537895 -0.128947 -1.98785e-15 0 3.97569e-16 -4.63474 -0.022105 -0.478947 19.9748 -1.02565 -2.81938 -3.44238 5.68434e-14 0 24 0 9.93923e-16 -2.3881 -5.68434e-14 0 20 -1.59028e-15 -2.38542e-15 -3.16105 0.469368 -1.20179 -1.98785e-15 0 3.97569e-16 -4.14105 -0.022105 -1.09053 19.7815 -3.00948 -8.30515 -2.75653 0 2.84217e-14 24 4.77083e-15 -7.95139e-16 -1.74189 5.68434e-14 0 20 0 3.97569e-16 3.1866 6.90858 -0.0088401 7.36408 -25.4461 -55.2459 12.8075 -0.0448481 -0.00797816 -26.5752 23.1947 -102.096 26.3942 -0.046792 0.114506 37.6367 -6.01579 -33.9525 25.9591 -0.00720033 0.0971784 -23.5502 -14.5361 -12.2902 2.48905 0.190105 3.12053 -28.184 10.7294 -19.1592 3.68274 0 0 -2.94921e-15 -1.59028e-15 10 2.55832 -2.84217e-14 2.84217e-14 -2.04088e-15 -1.59028e-15 10 3.22368 0.508421 1.97842 -1.01877e-15 -3.97569e-16 -7.95139e-16 5.21684 -0.091368 0.999158 -19.9818 0.871897 -2.3964 3.61937 -4.26326e-14 0 -24 3.97569e-16 7.95139e-16 2.0521 5.68434e-14 -1.42109e-14 -20 -1.59028e-15 7.95139e-16 3.38211 0.517263 0.756737 -1.01877e-15 -3.97569e-16 -7.95139e-16 5.17411 -0.084 0.313895 -20 -5.96354e-16 7.95139e-16 3.94947 0 -2.84217e-14 -24 3.97569e-16 -0 2.47579 -5.68434e-14 -2.84217e-14 -20 -3.97569e-16 7.95139e-16 3.36516 0.537895 -0.128947 -1.01877e-15 -3.97569e-16 -7.95139e-16 4.63474 -0.022105 -0.478947 -19.9748 -1.02565 2.81938 3.44238 1.42109e-14 0 -24 3.97569e-16 3.97569e-16 2.3881 5.68434e-14 2.84217e-14 -20 2.23633e-16 -0 3.16105 0.469368 -1.20179 -1.01877e-15 -3.97569e-16 -7.95139e-16 4.14105 -0.022105 -1.09053 -19.7815 -3.00948 8.30515 2.75653 0 0 -24 -1.59028e-15 -7.95139e-16 1.74189 0 0 -20 -1.59028e-15 -1.09332e-15 
360.776 87.7529 180.265 22.8614 -1.08823 -144.741 -9.32259 -1.60129 -0.0189654 35.982 -35.1896 29.3798 -0.160808 -41.8772 0.148017 -5.33933 12.7923 1.08622 1.80497 -42.9883 -0.0012356 11.7379 17.019 57.8999 9.28884 -1.53708 0.0785607 32.2481 -11.3015 21.4435 0.0771676 -41.8965 0.00872163 -25.6963 41.5698 25.4592 0.0351542 -41.6253 -1.52977 9.12609 -19.55 23.581 -0.0617986 14.299 0.0581124 -2.72524 -3.78639 -9.69029 -0.0105932 9.71401 0.0209089 -0.621682 -1.02672 -2.38199 0.00305201 10.1197 -0.0483881 -1.05243 -1.72058 -3.9146 0.000810919 9.71703 -0.0121344 -0.741613 -0.482045 2.73914 -0.021906 10.3866 0.180232 0.580859 -8.37743 43.9007 -0.163059 9.43355 0.0539241 -11.8539 10.7608 26.387 -3.19631 6.90533 0.0180195 -2.27975 1.61778 4.57813 -12.7975 -0.023308 0.0888787 33.8325 -66.9787 3.33328 -26.4767 -0.0411465 0.00160014 38.1665 -7.75697 116.765 -25.9968 -0.0315119 -0.0371107 -1.64481 -29.952 -4.49392 -2.48905 0.190105 3.12053 28.184 10.7294 19.1592 -3.68274 0 -2.84217e-14 3.96992e-15 4.77083e-15 -10 -2.55832 0 -2.84217e-14 -2.47612e-15 1.59028e-15 -10 -3.22368 0.508421 1.97842 8.94531e-16 1.59028e-15 -7.95139e-16 -5.21684 -0.091368 0.999158 19.9818 0.871897 2.3964 -3.61937 0 -2.84217e-14 24 0 -2.38542e-15 -2.0521 0 2.84217e-14 20 -1.59028e-15 -0 -3.38211 0.517263 0.756737 8.94531e-16 1.59028e-15 -7.95139e-16 -5.17411 -0.084 0.313895 20 1.59028e-15 -4.47266e-16 -3.94947 0 0 24 0 -3.18055e-15 -2.47579 5.68434e-14 0 20 7.95139e-16 -0 -3.36516 0.537895 -0.128947 8.94531e-16 1.59028e-15 -7.95139e-16 -4.63474 -0.022105 -0.478947 19.9748 -1.02565 -2.81938 -3.44238 -5.68434e-14 2.84217e-14 24 -1.59028e-15 -1.59028e-15 -2.3881 0 0 20 -1.59028e-15 -2.38542e-15 -3.16105 0.469368 -1.20179 8.94531e-16 1.59028e-15 -7.95139e-16 -4.14105 -0.022105 -1.09053 19.7815 -3.00948 -8.30515 -2.75653 0 0 24 -4.77083e-15 -7.95139e-16 -1.74189 -5.68434e-14 2.84217e-14 20 0 3.97569e-16 3.18667 6.90557 -0.0102063 7.32973 -25.4328 -55.2685 12.8014 -0.0463336 -0.00781955 -26.5307 23.1528 -102.127 26.456 -0.0467784 0.0499899 37.5021 -6.40975 -34.533 25.9602 -0.0328638 0.00591273 -23.5799 -14.482 -12.0411 2.48905 0.190105 3.12053 -28.184 10.7294 -19.1592 3.68274 0 0 2.98303e-15 -3.18055e-15 10 2.55832 -2.84217e-14 -1.42109e-14 4.49692e-15 -3.18055e-15 10 3.22368 0.508421 1.97842 7.05686e-15 3.97569e-16 7.95139e-16 5.21684 -0.091368 0.999158 -19.9818 0.871897 -2.3964 3.61937 -1.42109e-14 -4.26326e-14 -24 -3.97569e-16 1.59028e-15 2.0521 0 -2.84217e-14 -20 1.59028e-15 7.95139e-16 3.38211 0.517263 0.756737 7.05686e-15 3.97569e-16 7.95139e-16 5.17411 -0.084 0.313895 -20 -9.93923e-17 -7.95139e-16 3.94947 1.42109e-14 -1.42109e-14 -24 -1.98785e-16 1.59028e-15 2.47579 0 -2.84217e-14 -20 -1.19271e-15 -0 3.36516 0.537895 -0.128947 7.05686e-15 3.97569e-16 7.95139e-16 4.63474 -0.022105 -0.478947 -19.9748 -1.02565 2.81938 3.44238 -1.42109e-14 0 -24 -9.93923e-17 1.19271e-15 2.3881 0 0 -20 -2.98177e-16 3.97569e-16 3.16105 0.469368 -1.20179 7.05686e-15 3.97569e-16 7.95139e-16 4.14105 -0.022105 -1.09053 -19.7815 -3.00948 8.30515 2.75653 -4.26326e-14 0 -24 0 -1.19271e-15 1.74189 -5.68434e-14 0 -20 -7.95139e-16 5.96354e-16 
